REM DIRINDEX 1\2,1\3,1\4
REM DIRNAME folder01,folder02,folder03,folder04
TITLE ""
FILE "148 148_TOEFL_3900.mp3" MP3
  TRACK 01 AUDIO
    TITLE "2:cjc151_6442"
    INDEX 01 00:00:00
  TRACK 02 AUDIO
    TITLE "0:"
    INDEX 01 00:01:24
  TRACK 03 AUDIO
    TITLE "3:cjc151_6443"
    INDEX 01 00:03:04
  TRACK 04 AUDIO
    TITLE "0:"
    INDEX 01 00:06:73
  TRACK 05 AUDIO
    TITLE "2:cjc151_6444"
    INDEX 01 00:08:52
  TRACK 06 AUDIO
    TITLE "0:"
    INDEX 01 00:11:35
  TRACK 07 AUDIO
    TITLE "3:cjc151_6445"
    INDEX 01 00:13:12
  TRACK 08 AUDIO
    TITLE "0:"
    INDEX 01 00:18:25
  TRACK 09 AUDIO
    TITLE "2:cjc151_6446"
    INDEX 01 00:20:04
  TRACK 10 AUDIO
    TITLE "0:"
    INDEX 01 00:21:02
  TRACK 11 AUDIO
    TITLE "3:cjc151_6447"
    INDEX 01 00:22:56
  TRACK 12 AUDIO
    TITLE "0:"
    INDEX 01 00:26:36
  TRACK 13 AUDIO
    TITLE "2:cjc151_6448"
    INDEX 01 00:28:15
  TRACK 14 AUDIO
    TITLE "0:"
    INDEX 01 00:29:15
  TRACK 15 AUDIO
    TITLE "3:cjc151_6449"
    INDEX 01 00:30:69
  TRACK 16 AUDIO
    TITLE "0:"
    INDEX 01 00:35:02
  TRACK 17 AUDIO
    TITLE "2:cjc151_6450"
    INDEX 01 00:36:56
  TRACK 18 AUDIO
    TITLE "0:"
    INDEX 01 00:37:71
  TRACK 19 AUDIO
    TITLE "3:cjc151_6451"
    INDEX 01 00:39:51
  TRACK 20 AUDIO
    TITLE "0:"
    INDEX 01 00:44:24
  TRACK 21 AUDIO
    TITLE "2:cjc151_6452"
    INDEX 01 00:46:06
  TRACK 22 AUDIO
    TITLE "0:"
    INDEX 01 00:47:03
  TRACK 23 AUDIO
    TITLE "3:cjc151_6453"
    INDEX 01 00:48:55
  TRACK 24 AUDIO
    TITLE "0:"
    INDEX 01 00:52:61
  TRACK 25 AUDIO
    TITLE "2:cjc151_6454"
    INDEX 01 00:54:40
  TRACK 26 AUDIO
    TITLE "0:"
    INDEX 01 00:56:14
  TRACK 27 AUDIO
    TITLE "3:cjc151_6455"
    INDEX 01 00:57:66
  TRACK 28 AUDIO
    TITLE "0:"
    INDEX 01 01:02:46
  TRACK 29 AUDIO
    TITLE "2:cjc151_6456"
    INDEX 01 01:04:25
  TRACK 30 AUDIO
    TITLE "0:"
    INDEX 01 01:05:46
  TRACK 31 AUDIO
    TITLE "3:cjc151_6457"
    INDEX 01 01:07:25
  TRACK 32 AUDIO
    TITLE "0:"
    INDEX 01 01:12:24
  TRACK 33 AUDIO
    TITLE "2:cjc151_6458"
    INDEX 01 01:14:02
  TRACK 34 AUDIO
    TITLE "0:"
    INDEX 01 01:15:13
  TRACK 35 AUDIO
    TITLE "3:cjc151_6459"
    INDEX 01 01:16:61
  TRACK 36 AUDIO
    TITLE "0:"
    INDEX 01 01:21:14
  TRACK 37 AUDIO
    TITLE "2:cjc151_6460"
    INDEX 01 01:22:68
  TRACK 38 AUDIO
    TITLE "0:"
    INDEX 01 01:24:18
  TRACK 39 AUDIO
    TITLE "3:cjc151_6461"
    INDEX 01 01:25:74
  TRACK 40 AUDIO
    TITLE "0:"
    INDEX 01 01:30:09
  TRACK 41 AUDIO
    TITLE "2:cjc151_6462"
    INDEX 01 01:31:59
  TRACK 42 AUDIO
    TITLE "0:"
    INDEX 01 01:33:05
  TRACK 43 AUDIO
    TITLE "3:cjc151_6463"
    INDEX 01 01:34:54
  TRACK 44 AUDIO
    TITLE "0:"
    INDEX 01 01:38:24
  TRACK 45 AUDIO
    TITLE "2:cjc151_6464"
    INDEX 01 01:40:03
  TRACK 46 AUDIO
    TITLE "0:"
    INDEX 01 01:41:12
  TRACK 47 AUDIO
    TITLE "3:cjc151_6465"
    INDEX 01 01:42:63
  TRACK 48 AUDIO
    TITLE "0:"
    INDEX 01 01:47:17
  TRACK 49 AUDIO
    TITLE "2:cjc151_6466"
    INDEX 01 01:48:71
  TRACK 50 AUDIO
    TITLE "0:"
    INDEX 01 01:50:17
  TRACK 51 AUDIO
    TITLE "3:cjc151_6467"
    INDEX 01 01:51:74
  TRACK 52 AUDIO
    TITLE "0:"
    INDEX 01 01:55:09
  TRACK 53 AUDIO
    TITLE "2:cjc151_6468"
    INDEX 01 01:56:61
  TRACK 54 AUDIO
    TITLE "0:"
    INDEX 01 01:58:05
  TRACK 55 AUDIO
    TITLE "3:cjc151_6469"
    INDEX 01 01:59:59
  TRACK 56 AUDIO
    TITLE "0:"
    INDEX 01 02:04:33
  TRACK 57 AUDIO
    TITLE "2:cjc151_6470"
    INDEX 01 02:06:10
  TRACK 58 AUDIO
    TITLE "0:"
    INDEX 01 02:07:29
  TRACK 59 AUDIO
    TITLE "3:cjc151_6471"
    INDEX 01 02:09:09
  TRACK 60 AUDIO
    TITLE "0:"
    INDEX 01 02:14:16
  TRACK 61 AUDIO
    TITLE "2:cjc151_6472"
    INDEX 01 02:15:68
  TRACK 62 AUDIO
    TITLE "0:"
    INDEX 01 02:17:08
  TRACK 63 AUDIO
    TITLE "3:cjc151_6473"
    INDEX 01 02:18:63
  TRACK 64 AUDIO
    TITLE "0:"
    INDEX 01 02:22:64
  TRACK 65 AUDIO
    TITLE "2:cjc151_6474"
    INDEX 01 02:24:46
  TRACK 66 AUDIO
    TITLE "0:"
    INDEX 01 02:25:67
  TRACK 67 AUDIO
    TITLE "3:cjc151_6475"
    INDEX 01 02:27:44
  TRACK 68 AUDIO
    TITLE "0:"
    INDEX 01 02:30:50
  TRACK 69 AUDIO
    TITLE "2:cjc151_6476"
    INDEX 01 02:32:27
  TRACK 70 AUDIO
    TITLE "0:"
    INDEX 01 02:33:31
  TRACK 71 AUDIO
    TITLE "3:cjc151_6477"
    INDEX 01 02:35:10
  TRACK 72 AUDIO
    TITLE "0:"
    INDEX 01 02:38:65
  TRACK 73 AUDIO
    TITLE "2:cjc151_6478"
    INDEX 01 02:40:47
  TRACK 74 AUDIO
    TITLE "0:"
    INDEX 01 02:42:06
  TRACK 75 AUDIO
    TITLE "3:cjc151_6479"
    INDEX 01 02:43:63
  TRACK 76 AUDIO
    TITLE "0:"
    INDEX 01 02:48:36
  TRACK 77 AUDIO
    TITLE "2:cjc151_6480"
    INDEX 01 02:50:18
  TRACK 78 AUDIO
    TITLE "0:"
    INDEX 01 02:51:37
  TRACK 79 AUDIO
    TITLE "3:cjc151_6481"
    INDEX 01 02:53:12
  TRACK 80 AUDIO
    TITLE "0:"
    INDEX 01 02:58:01
  TRACK 81 AUDIO
    TITLE "2:cjc151_6482"
    INDEX 01 02:59:56
  TRACK 82 AUDIO
    TITLE "0:"
    INDEX 01 03:00:63
  TRACK 83 AUDIO
    TITLE "3:cjc151_6483"
    INDEX 01 03:02:40
  TRACK 84 AUDIO
    TITLE "0:"
    INDEX 01 03:06:28
  TRACK 85 AUDIO
    TITLE "2:cjc151_6484"
    INDEX 01 03:08:10
  TRACK 86 AUDIO
    TITLE "0:"
    INDEX 01 03:09:09
  TRACK 87 AUDIO
    TITLE "3:cjc151_6485"
    INDEX 01 03:10:63
  TRACK 88 AUDIO
    TITLE "0:"
    INDEX 01 03:14:10
